<svg id="svg" xmlns="http://www.w3.org/2000/svg" xmlns:xlink="http://www.w3.org/1999/xlink" width="400" height="381.5869170199879" viewBox="0, 0, 400,381.5869170199879"><g id="svgg"><path id="path0" d="M20.928 160.203 C 20.845 207.934,20.863 228.922,20.988 230.500 C 21.085 231.737,21.205 233.463,21.254 234.333 C 21.303 235.204,21.450 236.854,21.581 238.000 C 21.712 239.146,21.904 240.871,22.007 241.833 C 22.111 242.796,22.302 244.135,22.431 244.809 C 22.561 245.484,22.667 246.229,22.667 246.466 C 22.667 246.702,22.772 247.350,22.901 247.906 C 23.030 248.462,23.220 249.479,23.324 250.167 C 23.510 251.394,23.810 252.848,24.253 254.667 C 24.376 255.171,24.565 256.033,24.674 256.583 C 24.782 257.133,24.970 257.921,25.090 258.333 C 25.210 258.746,25.428 259.571,25.574 260.167 C 25.721 260.762,25.991 261.775,26.175 262.417 C 26.359 263.058,26.623 263.996,26.762 264.500 C 26.900 265.004,27.205 265.979,27.439 266.667 C 27.673 267.354,28.003 268.367,28.171 268.917 C 28.485 269.942,29.530 272.867,30.167 274.500 C 30.363 275.004,30.662 275.792,30.830 276.250 C 31.209 277.284,32.517 280.384,33.184 281.833 C 33.459 282.429,33.886 283.361,34.133 283.904 C 35.433 286.757,38.478 292.626,39.697 294.628 C 40.047 295.202,40.333 295.710,40.333 295.755 C 40.333 295.830,43.151 300.415,44.167 301.993 C 45.791 304.516,50.584 311.127,52.506 313.497 C 56.225 318.079,59.013 321.171,63.252 325.413 C 65.981 328.144,67.679 329.729,70.985 332.628 C 71.223 332.836,71.567 333.142,71.750 333.308 C 72.363 333.862,77.242 337.761,77.833 338.169 C 78.154 338.390,78.492 338.658,78.583 338.765 C 78.675 338.871,79.725 339.644,80.917 340.481 C 82.108 341.318,83.164 342.068,83.262 342.147 C 83.437 342.288,88.071 345.344,89.778 346.445 C 90.252 346.750,90.691 347.000,90.753 347.000 C 90.814 347.000,91.101 347.169,91.389 347.375 C 91.676 347.581,92.063 347.832,92.248 347.933 C 93.077 348.386,93.957 348.879,94.417 349.150 C 97.808 351.149,104.318 354.407,108.000 355.947 C 108.655 356.221,109.305 356.500,110.167 356.877 C 110.487 357.017,110.938 357.206,111.167 357.297 C 111.396 357.389,112.146 357.692,112.833 357.971 C 113.521 358.250,115.171 358.867,116.500 359.341 C 119.216 360.311,119.830 360.530,120.667 360.826 C 120.987 360.939,121.737 361.167,122.333 361.332 C 122.929 361.497,123.604 361.705,123.833 361.795 C 124.489 362.051,125.384 362.322,126.442 362.586 C 126.978 362.720,127.792 362.939,128.250 363.072 C 131.283 363.953,135.613 364.931,140.167 365.761 C 143.593 366.386,144.161 366.481,145.500 366.650 C 146.279 366.749,147.779 366.939,148.833 367.074 C 158.220 368.271,173.189 368.382,259.696 367.898 L 278.642 367.792 277.138 367.061 C 273.676 365.376,273.199 364.918,257.873 348.583 C 250.391 340.608,243.771 333.558,243.162 332.917 C 242.554 332.275,241.425 331.076,240.653 330.252 C 237.873 327.283,236.886 326.230,235.730 325.000 C 235.084 324.313,233.925 323.076,233.153 322.252 C 230.838 319.780,229.320 318.163,227.989 316.753 C 227.296 316.018,226.100 314.742,225.333 313.917 C 224.566 313.092,223.404 311.854,222.751 311.167 C 222.099 310.479,217.036 305.079,211.500 299.167 C 205.964 293.254,200.901 287.854,200.247 287.167 C 199.130 285.991,195.676 282.312,192.509 278.923 C 190.302 276.563,186.562 272.573,184.926 270.834 C 184.106 269.963,182.941 268.725,182.337 268.083 C 181.734 267.442,178.994 264.517,176.248 261.583 C 173.503 258.650,170.056 254.974,168.587 253.414 C 167.118 251.854,164.867 249.455,163.583 248.082 C 162.300 246.710,160.612 244.910,159.833 244.084 C 159.054 243.258,157.329 241.420,156.000 240.000 C 154.671 238.580,152.946 236.742,152.167 235.916 C 151.387 235.090,149.732 233.327,148.487 231.998 C 139.968 222.905,129.022 211.237,127.000 209.092 C 126.221 208.265,125.058 207.026,124.417 206.338 C 123.775 205.651,122.680 204.487,121.984 203.752 C 121.287 203.018,117.806 199.304,114.247 195.500 C 110.689 191.696,107.171 187.944,106.431 187.163 C 104.763 185.405,103.480 184.039,100.090 180.417 C 98.632 178.858,96.831 176.946,96.088 176.167 C 95.344 175.387,91.893 171.713,88.418 168.000 C 84.943 164.287,81.493 160.612,80.751 159.833 C 80.009 159.054,78.805 157.781,78.076 157.003 C 77.347 156.226,76.219 155.026,75.569 154.337 C 74.920 153.647,73.758 152.409,72.986 151.584 C 72.215 150.759,70.946 149.411,70.167 148.587 C 67.601 145.875,66.087 144.269,64.743 142.837 C 62.877 140.848,61.310 139.182,59.488 137.252 C 58.624 136.337,57.354 134.988,56.667 134.255 C 55.979 133.521,54.810 132.283,54.068 131.502 C 53.327 130.722,51.382 128.658,49.747 126.917 C 46.844 123.824,44.420 121.252,38.828 115.333 C 25.528 101.255,25.768 101.518,24.451 99.536 C 23.058 97.438,22.450 96.210,21.723 94.029 C 21.397 93.050,21.111 92.229,21.088 92.203 C 21.065 92.178,20.992 122.778,20.928 160.203 " stroke="none" fill="#fb0474" fill-rule="evenodd"></path><path id="path1" d="M63.417 10.016 C 60.850 10.097,57.512 10.277,56.000 10.416 C 54.487 10.555,52.688 10.669,52.000 10.668 C 49.551 10.665,43.262 12.138,41.373 13.156 C 41.214 13.242,40.633 13.519,40.083 13.771 C 37.903 14.773,33.564 17.520,33.361 18.028 C 33.331 18.104,33.239 18.167,33.158 18.167 C 32.875 18.167,30.308 20.619,28.964 22.174 C 27.611 23.738,27.478 23.905,27.199 24.375 C 27.050 24.627,26.869 24.833,26.797 24.833 C 26.725 24.833,26.667 24.940,26.667 25.069 C 26.667 25.199,26.610 25.331,26.542 25.361 C 26.152 25.534,24.042 29.307,23.295 31.167 C 23.203 31.396,23.056 31.723,22.968 31.894 C 22.592 32.620,21.681 35.636,21.224 37.667 C 20.529 40.749,20.507 41.599,20.503 65.583 C 20.499 89.418,20.532 90.682,21.186 92.094 C 21.359 92.467,21.500 92.860,21.500 92.969 C 21.500 95.080,24.733 100.316,28.414 104.167 C 29.953 105.777,31.753 107.681,35.583 111.749 C 39.006 115.384,41.063 117.563,42.744 119.333 C 43.484 120.112,45.249 121.987,46.667 123.500 C 48.085 125.013,49.852 126.888,50.594 127.667 C 51.337 128.446,53.136 130.358,54.593 131.917 C 56.051 133.475,57.923 135.462,58.754 136.333 C 60.459 138.119,60.712 138.388,68.172 146.333 C 71.142 149.496,74.105 152.646,74.757 153.333 C 75.410 154.021,77.244 155.971,78.833 157.667 C 80.423 159.362,82.256 161.313,82.907 162.000 C 83.558 162.688,85.359 164.600,86.910 166.250 C 88.461 167.900,90.789 170.375,92.082 171.750 C 93.376 173.125,96.261 176.200,98.495 178.583 C 102.917 183.302,104.631 185.126,106.328 186.917 C 106.936 187.558,109.714 190.521,112.501 193.500 C 115.288 196.479,118.177 199.554,118.920 200.333 C 119.664 201.112,120.900 202.425,121.667 203.250 C 122.434 204.075,123.556 205.275,124.160 205.917 C 124.764 206.558,126.453 208.358,127.913 209.917 C 129.373 211.475,131.695 213.950,133.074 215.417 C 135.675 218.183,135.972 218.500,140.496 223.333 C 141.998 224.938,143.760 226.813,144.412 227.500 C 145.063 228.188,146.189 229.387,146.914 230.167 C 148.478 231.848,150.467 233.970,151.991 235.583 C 152.598 236.225,153.724 237.425,154.495 238.250 C 155.265 239.075,156.390 240.275,156.994 240.917 C 157.598 241.558,159.285 243.358,160.743 244.917 C 162.202 246.475,163.891 248.275,164.498 248.917 C 165.105 249.558,166.791 251.358,168.245 252.917 C 169.699 254.475,171.495 256.388,172.236 257.168 C 172.977 257.949,174.108 259.150,174.750 259.839 C 175.825 260.992,177.122 262.372,179.992 265.417 C 180.597 266.058,182.809 268.421,184.908 270.667 C 187.006 272.912,189.219 275.275,189.824 275.917 C 190.430 276.558,192.118 278.358,193.577 279.917 C 195.035 281.475,196.725 283.275,197.332 283.917 C 197.939 284.558,199.625 286.358,201.078 287.917 C 202.532 289.475,204.256 291.313,204.910 292.000 C 206.055 293.205,214.772 302.503,217.328 305.247 C 218.013 305.982,219.214 307.258,219.997 308.083 C 220.780 308.908,222.433 310.670,223.669 311.999 C 225.836 314.329,227.583 316.191,230.079 318.833 C 230.728 319.521,232.453 321.358,233.910 322.917 C 235.368 324.475,237.056 326.275,237.660 326.917 C 238.264 327.558,239.953 329.358,241.413 330.917 C 242.873 332.475,245.195 334.950,246.574 336.417 C 247.953 337.883,249.606 339.646,250.247 340.333 C 250.888 341.021,252.015 342.221,252.751 343.000 C 253.486 343.779,255.137 345.541,256.419 346.915 C 257.701 348.289,259.387 350.089,260.167 350.915 C 260.946 351.741,262.633 353.540,263.917 354.912 C 272.918 364.536,274.486 365.921,278.006 367.362 C 278.507 367.566,278.959 367.794,279.010 367.867 C 279.061 367.940,279.736 368.169,280.510 368.375 L 281.917 368.750 314.000 368.750 C 344.528 368.750,346.152 368.735,347.500 368.443 C 350.073 367.886,350.970 367.660,351.949 367.319 C 352.481 367.133,353.067 366.942,353.250 366.894 C 354.141 366.658,357.293 365.210,358.583 364.443 C 359.795 363.722,361.721 362.468,361.932 362.261 C 362.032 362.163,362.364 361.896,362.669 361.667 C 364.402 360.367,368.000 356.775,368.000 356.345 C 368.000 356.247,368.062 356.167,368.137 356.167 C 368.703 356.167,373.322 348.323,373.340 347.333 C 373.342 347.196,373.454 346.938,373.589 346.760 C 373.723 346.582,373.833 346.303,373.833 346.140 C 373.833 345.978,373.939 345.598,374.067 345.297 C 374.196 344.996,374.378 344.450,374.471 344.083 C 374.564 343.717,374.721 343.109,374.819 342.734 C 375.741 339.217,375.663 353.255,375.663 189.750 C 375.663 22.346,375.804 40.397,374.460 35.417 C 373.935 33.471,373.143 31.431,372.096 29.333 C 371.316 27.771,371.384 27.887,369.855 25.500 C 368.495 23.377,365.077 19.627,363.167 18.161 C 362.754 17.845,362.392 17.529,362.361 17.460 C 362.331 17.390,362.206 17.333,362.083 17.333 C 361.961 17.333,361.836 17.266,361.806 17.183 C 361.756 17.049,359.540 15.500,359.398 15.500 C 359.365 15.500,358.869 15.214,358.295 14.865 C 356.068 13.512,351.882 11.901,349.167 11.350 C 345.650 10.638,346.406 10.660,325.116 10.665 C 307.845 10.669,304.614 10.707,303.528 10.917 C 302.825 11.053,301.837 11.245,301.333 11.342 C 300.261 11.549,298.826 11.940,298.000 12.250 C 297.679 12.370,296.986 12.595,296.459 12.750 C 295.932 12.904,295.459 13.099,295.407 13.182 C 295.356 13.265,295.199 13.333,295.059 13.333 C 294.733 13.333,290.283 15.505,289.451 16.070 C 289.103 16.307,288.778 16.500,288.728 16.500 C 288.643 16.500,287.178 17.489,287.000 17.667 C 286.954 17.712,286.715 17.862,286.469 18.000 C 284.842 18.908,279.000 24.512,279.000 25.165 C 279.000 25.258,278.930 25.333,278.844 25.333 C 278.686 25.333,277.147 27.587,276.567 28.667 C 276.395 28.988,276.173 29.363,276.074 29.500 C 275.509 30.285,274.104 33.909,273.554 36.000 C 272.718 39.185,272.542 43.916,272.967 51.833 C 273.185 55.903,273.579 65.822,273.841 73.833 C 274.024 79.415,274.214 88.966,274.522 108.083 C 274.620 114.133,274.736 120.321,274.779 121.833 C 275.071 131.863,272.133 134.781,265.704 130.847 C 263.954 129.776,263.922 129.755,263.833 129.659 C 263.787 129.608,263.487 129.387,263.167 129.167 C 262.846 128.946,262.546 128.725,262.500 128.674 C 262.454 128.624,261.854 128.133,261.167 127.583 C 260.479 127.033,259.833 126.508,259.731 126.417 C 259.629 126.325,258.918 125.688,258.151 125.000 C 254.531 121.758,249.646 116.872,243.917 110.767 C 242.725 109.497,241.485 108.186,241.161 107.854 C 240.837 107.522,239.678 106.275,238.585 105.083 C 236.594 102.913,235.374 101.592,234.750 100.931 C 234.567 100.737,233.742 99.834,232.917 98.925 C 232.092 98.017,231.229 97.075,231.000 96.833 C 230.510 96.314,228.032 93.602,226.983 92.435 C 226.580 91.986,226.062 91.424,225.832 91.185 C 225.602 90.946,224.630 89.888,223.673 88.833 C 222.715 87.779,221.816 86.804,221.674 86.666 C 221.533 86.529,220.706 85.629,219.838 84.666 C 218.299 82.960,217.349 81.924,216.498 81.026 C 216.267 80.782,215.260 79.683,214.260 78.583 C 213.260 77.483,212.061 76.184,211.596 75.695 C 210.539 74.586,210.320 74.349,208.167 71.999 C 207.204 70.949,206.154 69.817,205.833 69.485 C 205.163 68.790,201.855 65.244,200.500 63.768 C 199.996 63.219,199.208 62.388,198.750 61.923 C 198.292 61.457,196.830 59.916,195.502 58.497 C 194.174 57.078,192.637 55.457,192.086 54.896 C 191.534 54.335,189.659 52.385,187.917 50.563 C 184.974 47.483,182.066 44.479,178.417 40.745 C 176.129 38.404,173.971 36.147,171.583 33.598 C 170.392 32.326,169.265 31.127,169.079 30.934 C 168.893 30.741,168.300 30.096,167.761 29.500 C 164.797 26.222,157.244 18.277,155.393 16.492 C 150.538 11.808,147.232 11.034,129.750 10.488 C 114.370 10.008,72.975 9.713,63.417 10.016 " stroke="none" fill="#6404fc" fill-rule="evenodd"></path><path id="path2" d="M29.000 104.885 C 29.000 104.914,29.244 105.158,29.542 105.427 L 30.083 105.917 29.594 105.375 C 29.138 104.870,29.000 104.757,29.000 104.885 M31.833 107.885 C 31.833 107.914,32.077 108.158,32.375 108.427 L 32.917 108.917 32.427 108.375 C 31.971 107.870,31.833 107.757,31.833 107.885 M34.500 110.719 C 34.500 110.748,34.744 110.991,35.042 111.260 L 35.583 111.750 35.094 111.208 C 34.638 110.703,34.500 110.590,34.500 110.719 M40.167 116.719 C 40.167 116.748,40.410 116.991,40.708 117.260 L 41.250 117.750 40.760 117.208 C 40.304 116.703,40.167 116.590,40.167 116.719 M42.833 119.552 C 42.833 119.581,43.077 119.825,43.375 120.094 L 43.917 120.583 43.427 120.042 C 42.971 119.537,42.833 119.423,42.833 119.552 M51.167 128.385 C 51.167 128.414,51.410 128.658,51.708 128.927 L 52.250 129.417 51.760 128.875 C 51.304 128.370,51.167 128.257,51.167 128.385 M53.833 131.219 C 53.833 131.248,54.077 131.491,54.375 131.760 L 54.917 132.250 54.427 131.708 C 53.971 131.203,53.833 131.090,53.833 131.219 M59.833 137.583 C 60.144 137.904,60.436 138.167,60.482 138.167 C 60.528 138.167,60.311 137.904,60.000 137.583 C 59.689 137.262,59.397 137.000,59.351 137.000 C 59.305 137.000,59.522 137.262,59.833 137.583 M64.500 142.552 C 64.500 142.581,64.744 142.825,65.042 143.094 L 65.583 143.583 65.094 143.042 C 64.638 142.537,64.500 142.423,64.500 142.552 M67.333 145.552 C 67.333 145.581,67.577 145.825,67.875 146.094 L 68.417 146.583 67.927 146.042 C 67.471 145.537,67.333 145.423,67.333 145.552 M72.500 151.052 C 72.500 151.081,72.744 151.325,73.042 151.594 L 73.583 152.083 73.094 151.542 C 72.638 151.037,72.500 150.923,72.500 151.052 M75.167 153.885 C 75.167 153.914,75.410 154.158,75.708 154.427 L 76.250 154.917 75.760 154.375 C 75.304 153.870,75.167 153.757,75.167 153.885 M77.833 156.719 C 77.833 156.748,78.077 156.991,78.375 157.260 L 78.917 157.750 78.427 157.208 C 77.971 156.703,77.833 156.590,77.833 156.719 M80.500 159.552 C 80.500 159.581,80.744 159.825,81.042 160.094 L 81.583 160.583 81.094 160.042 C 80.638 159.537,80.500 159.423,80.500 159.552 M85.833 165.219 C 85.833 165.248,86.077 165.491,86.375 165.760 L 86.917 166.250 86.427 165.708 C 85.971 165.203,85.833 165.090,85.833 165.219 M88.500 168.052 C 88.500 168.081,88.744 168.325,89.042 168.594 L 89.583 169.083 89.094 168.542 C 88.638 168.037,88.500 167.923,88.500 168.052 M96.167 176.219 C 96.167 176.248,96.410 176.491,96.708 176.760 L 97.250 177.250 96.760 176.708 C 96.304 176.203,96.167 176.090,96.167 176.219 M101.333 181.719 C 101.333 181.748,101.577 181.991,101.875 182.260 L 102.417 182.750 101.927 182.208 C 101.471 181.703,101.333 181.590,101.333 181.719 M109.000 189.885 C 109.000 189.914,109.244 190.158,109.542 190.427 L 110.083 190.917 109.594 190.375 C 109.138 189.870,109.000 189.757,109.000 189.885 M114.167 195.385 C 114.167 195.414,114.410 195.658,114.708 195.927 L 115.250 196.417 114.760 195.875 C 114.304 195.370,114.167 195.257,114.167 195.385 M119.750 201.333 C 120.108 201.700,120.438 202.000,120.484 202.000 C 120.530 202.000,120.275 201.700,119.917 201.333 C 119.559 200.967,119.228 200.667,119.182 200.667 C 119.137 200.667,119.392 200.967,119.750 201.333 M121.833 203.552 C 121.833 203.581,122.077 203.825,122.375 204.094 L 122.917 204.583 122.427 204.042 C 121.971 203.537,121.833 203.423,121.833 203.552 M127.000 209.052 C 127.000 209.081,127.244 209.325,127.542 209.594 L 128.083 210.083 127.594 209.542 C 127.138 209.037,127.000 208.923,127.000 209.052 M129.333 211.552 C 129.333 211.581,129.577 211.825,129.875 212.094 L 130.417 212.583 129.927 212.042 C 129.471 211.537,129.333 211.423,129.333 211.552 M135.000 217.583 C 135.311 217.904,135.603 218.167,135.649 218.167 C 135.695 218.167,135.478 217.904,135.167 217.583 C 134.856 217.262,134.564 217.000,134.518 217.000 C 134.472 217.000,134.689 217.262,135.000 217.583 M139.500 222.385 C 139.500 222.414,139.744 222.658,140.042 222.927 L 140.583 223.417 140.094 222.875 C 139.638 222.370,139.500 222.257,139.500 222.385 M147.000 230.385 C 147.000 230.414,147.244 230.658,147.542 230.927 L 148.083 231.417 147.594 230.875 C 147.138 230.370,147.000 230.257,147.000 230.385 M154.667 238.552 C 154.667 238.581,154.910 238.825,155.208 239.094 L 155.750 239.583 155.260 239.042 C 154.804 238.537,154.667 238.423,154.667 238.552 M159.833 244.052 C 159.833 244.081,160.077 244.325,160.375 244.594 L 160.917 245.083 160.427 244.542 C 159.971 244.037,159.833 243.923,159.833 244.052 M167.333 252.052 C 167.333 252.081,167.577 252.325,167.875 252.594 L 168.417 253.083 167.927 252.542 C 167.471 252.037,167.333 251.923,167.333 252.052 M172.333 257.385 C 172.333 257.414,172.577 257.658,172.875 257.927 L 173.417 258.417 172.927 257.875 C 172.471 257.370,172.333 257.257,172.333 257.385 M179.833 265.385 C 179.833 265.414,180.077 265.658,180.375 265.927 L 180.917 266.417 180.427 265.875 C 179.971 265.370,179.833 265.257,179.833 265.385 M182.500 268.219 C 182.500 268.248,182.744 268.491,183.042 268.760 L 183.583 269.250 183.094 268.708 C 182.638 268.203,182.500 268.090,182.500 268.219 M185.417 271.333 C 185.775 271.700,186.105 272.000,186.151 272.000 C 186.197 272.000,185.941 271.700,185.583 271.333 C 185.225 270.967,184.895 270.667,184.849 270.667 C 184.803 270.667,185.059 270.967,185.417 271.333 M187.500 273.552 C 187.500 273.581,187.744 273.825,188.042 274.094 L 188.583 274.583 188.094 274.042 C 187.638 273.537,187.500 273.423,187.500 273.552 M192.917 279.333 C 193.275 279.700,193.605 280.000,193.651 280.000 C 193.697 280.000,193.441 279.700,193.083 279.333 C 192.725 278.967,192.395 278.667,192.349 278.667 C 192.303 278.667,192.559 278.967,192.917 279.333 M200.167 287.052 C 200.167 287.081,200.410 287.325,200.708 287.594 L 201.250 288.083 200.760 287.542 C 200.304 287.037,200.167 286.923,200.167 287.052 M202.500 289.552 C 202.500 289.581,202.744 289.825,203.042 290.094 L 203.583 290.583 203.094 290.042 C 202.638 289.537,202.500 289.423,202.500 289.552 M212.667 300.385 C 212.667 300.414,212.910 300.658,213.208 300.927 L 213.750 301.417 213.260 300.875 C 212.804 300.370,212.667 300.257,212.667 300.385 M215.333 303.219 C 215.333 303.248,215.577 303.491,215.875 303.760 L 216.417 304.250 215.927 303.708 C 215.471 303.203,215.333 303.090,215.333 303.219 M220.667 308.917 C 220.978 309.237,221.270 309.500,221.315 309.500 C 221.361 309.500,221.144 309.237,220.833 308.917 C 220.522 308.596,220.230 308.333,220.185 308.333 C 220.139 308.333,220.356 308.596,220.667 308.917 M227.667 316.385 C 227.667 316.414,227.910 316.658,228.208 316.927 L 228.750 317.417 228.260 316.875 C 227.804 316.370,227.667 316.257,227.667 316.385 M233.000 322.052 C 233.000 322.081,233.244 322.325,233.542 322.594 L 234.083 323.083 233.594 322.542 C 233.138 322.037,233.000 321.923,233.000 322.052 M235.333 324.552 C 235.333 324.581,235.577 324.825,235.875 325.094 L 236.417 325.583 235.927 325.042 C 235.471 324.537,235.333 324.423,235.333 324.552 M240.500 330.052 C 240.500 330.081,240.744 330.325,241.042 330.594 L 241.583 331.083 241.094 330.542 C 240.638 330.037,240.500 329.923,240.500 330.052 M242.833 332.552 C 242.833 332.581,243.077 332.825,243.375 333.094 L 243.917 333.583 243.427 333.042 C 242.971 332.537,242.833 332.423,242.833 332.552 M248.167 338.219 C 248.167 338.248,248.410 338.491,248.708 338.760 L 249.250 339.250 248.760 338.708 C 248.304 338.203,248.167 338.090,248.167 338.219 M250.333 340.552 C 250.333 340.581,250.577 340.825,250.875 341.094 L 251.417 341.583 250.927 341.042 C 250.471 340.537,250.333 340.423,250.333 340.552 M253.000 343.385 C 253.000 343.414,253.244 343.658,253.542 343.927 L 254.083 344.417 253.594 343.875 C 253.138 343.370,253.000 343.257,253.000 343.385 M260.500 351.385 C 260.500 351.414,260.744 351.658,261.042 351.927 L 261.583 352.417 261.094 351.875 C 260.638 351.370,260.500 351.257,260.500 351.385 M268.167 359.552 C 268.167 359.581,268.410 359.825,268.708 360.094 L 269.250 360.583 268.760 360.042 C 268.304 359.537,268.167 359.423,268.167 359.552 " stroke="none" fill="#9904d0" fill-rule="evenodd"></path><path id="path3" d="" stroke="none" fill="#ac04bc" fill-rule="evenodd"></path><path id="path4" d="M27.667 103.552 C 27.667 103.581,27.910 103.825,28.208 104.094 L 28.750 104.583 28.260 104.042 C 27.804 103.537,27.667 103.423,27.667 103.552 M30.333 106.385 C 30.333 106.414,30.577 106.658,30.875 106.927 L 31.417 107.417 30.927 106.875 C 30.471 106.370,30.333 106.257,30.333 106.385 M33.333 109.552 C 33.333 109.581,33.577 109.825,33.875 110.094 L 34.417 110.583 33.927 110.042 C 33.471 109.537,33.333 109.423,33.333 109.552 M36.000 112.385 C 36.000 112.414,36.244 112.658,36.542 112.927 L 37.083 113.417 36.594 112.875 C 36.138 112.370,36.000 112.257,36.000 112.385 M38.667 115.219 C 38.667 115.248,38.910 115.491,39.208 115.760 L 39.750 116.250 39.260 115.708 C 38.804 115.203,38.667 115.090,38.667 115.219 M44.750 121.667 C 45.108 122.033,45.438 122.333,45.484 122.333 C 45.530 122.333,45.275 122.033,44.917 121.667 C 44.559 121.300,44.228 121.000,44.182 121.000 C 44.137 121.000,44.392 121.300,44.750 121.667 M49.833 127.052 C 49.833 127.081,50.077 127.325,50.375 127.594 L 50.917 128.083 50.427 127.542 C 49.971 127.037,49.833 126.923,49.833 127.052 M52.500 129.885 C 52.500 129.914,52.744 130.158,53.042 130.427 L 53.583 130.917 53.094 130.375 C 52.638 129.870,52.500 129.757,52.500 129.885 M57.833 135.552 C 57.833 135.581,58.077 135.825,58.375 136.094 L 58.917 136.583 58.427 136.042 C 57.971 135.537,57.833 135.423,57.833 135.552 M60.833 138.719 C 60.833 138.748,61.077 138.991,61.375 139.260 L 61.917 139.750 61.427 139.208 C 60.971 138.703,60.833 138.590,60.833 138.719 M65.833 144.052 C 65.833 144.081,66.077 144.325,66.375 144.594 L 66.917 145.083 66.427 144.542 C 65.971 144.037,65.833 143.923,65.833 144.052 M89.667 169.385 C 89.667 169.414,89.910 169.658,90.208 169.927 L 90.750 170.417 90.260 169.875 C 89.804 169.370,89.667 169.257,89.667 169.385 M92.333 172.219 C 92.333 172.248,92.577 172.491,92.875 172.760 L 93.417 173.250 92.927 172.708 C 92.471 172.203,92.333 172.090,92.333 172.219 M95.000 175.052 C 95.000 175.081,95.244 175.325,95.542 175.594 L 96.083 176.083 95.594 175.542 C 95.138 175.037,95.000 174.923,95.000 175.052 M105.167 185.885 C 105.167 185.914,105.410 186.158,105.708 186.427 L 106.250 186.917 105.760 186.375 C 105.304 185.870,105.167 185.757,105.167 185.885 M107.833 188.719 C 107.833 188.748,108.077 188.991,108.375 189.260 L 108.917 189.750 108.427 189.208 C 107.971 188.703,107.833 188.590,107.833 188.719 M112.833 194.052 C 112.833 194.081,113.077 194.325,113.375 194.594 L 113.917 195.083 113.427 194.542 C 112.971 194.037,112.833 193.923,112.833 194.052 M118.000 199.552 C 118.000 199.581,118.244 199.825,118.542 200.094 L 119.083 200.583 118.594 200.042 C 118.138 199.537,118.000 199.423,118.000 199.552 M133.167 215.719 C 133.167 215.748,133.410 215.991,133.708 216.260 L 134.250 216.750 133.760 216.208 C 133.304 215.703,133.167 215.590,133.167 215.719 M135.833 218.552 C 135.833 218.581,136.077 218.825,136.375 219.094 L 136.917 219.583 136.427 219.042 C 135.971 218.537,135.833 218.423,135.833 218.552 M143.333 226.552 C 143.333 226.581,143.577 226.825,143.875 227.094 L 144.417 227.583 143.927 227.042 C 143.471 226.537,143.333 226.423,143.333 226.552 M158.500 242.719 C 158.500 242.748,158.744 242.991,159.042 243.260 L 159.583 243.750 159.094 243.208 C 158.638 242.703,158.500 242.590,158.500 242.719 M161.167 245.552 C 161.167 245.581,161.410 245.825,161.708 246.094 L 162.250 246.583 161.760 246.042 C 161.304 245.537,161.167 245.423,161.167 245.552 M166.000 250.719 C 166.000 250.748,166.244 250.991,166.542 251.260 L 167.083 251.750 166.594 251.208 C 166.138 250.703,166.000 250.590,166.000 250.719 M168.667 253.552 C 168.667 253.581,168.910 253.825,169.208 254.094 L 169.750 254.583 169.260 254.042 C 168.804 253.537,168.667 253.423,168.667 253.552 M176.167 261.552 C 176.167 261.581,176.410 261.825,176.708 262.094 L 177.250 262.583 176.760 262.042 C 176.304 261.537,176.167 261.423,176.167 261.552 M183.667 269.552 C 183.667 269.581,183.910 269.825,184.208 270.094 L 184.750 270.583 184.260 270.042 C 183.804 269.537,183.667 269.423,183.667 269.552 M186.333 272.385 C 186.333 272.414,186.577 272.658,186.875 272.927 L 187.417 273.417 186.927 272.875 C 186.471 272.370,186.333 272.257,186.333 272.385 M198.833 285.719 C 198.833 285.748,199.077 285.991,199.375 286.260 L 199.917 286.750 199.427 286.208 C 198.971 285.703,198.833 285.590,198.833 285.719 M231.667 320.719 C 231.667 320.748,231.910 320.991,232.208 321.260 L 232.750 321.750 232.260 321.208 C 231.804 320.703,231.667 320.590,231.667 320.719 M239.167 328.719 C 239.167 328.748,239.410 328.991,239.708 329.260 L 240.250 329.750 239.760 329.208 C 239.304 328.703,239.167 328.590,239.167 328.719 M259.167 350.052 C 259.167 350.081,259.410 350.325,259.708 350.594 L 260.250 351.083 259.760 350.542 C 259.304 350.037,259.167 349.923,259.167 350.052 M266.667 358.052 C 266.667 358.081,266.910 358.325,267.208 358.594 L 267.750 359.083 267.260 358.542 C 266.804 358.037,266.667 357.923,266.667 358.052 M269.917 361.500 C 270.275 361.867,270.605 362.167,270.651 362.167 C 270.697 362.167,270.441 361.867,270.083 361.500 C 269.725 361.133,269.395 360.833,269.349 360.833 C 269.303 360.833,269.559 361.133,269.917 361.500 " stroke="none" fill="#b404bc" fill-rule="evenodd"></path></g></svg>