<?xml version="1.0" encoding="iso-8859-1"?>
<!-- Generator: Adobe Illustrator 19.0.0, SVG Export Plug-In . SVG Version: 6.00 Build 0)  -->
<svg version="1.1" id="Layer_1" xmlns="http://www.w3.org/2000/svg" xmlns:xlink="http://www.w3.org/1999/xlink" x="0px" y="0px"
	 viewBox="0 0 488.7 488.7" style="enable-background:new 0 0 488.7 488.7;" xml:space="preserve">
<g>
	<g>
		<circle id="XMLID_1732_" style="fill:#e6d5ff;" cx="137.402" cy="190.5" r="71.6"/>
		<circle id="XMLID_1731_" style="fill:#e6d5ff;" cx="230.402" cy="56" r="46.9"/>
		<path  style="fill:#6600ff;" d="M432.402,331.5v-43.3c0-14.7-11.9-26.6-26.6-26.6h-6.5c-9.1-23.8-24.6-45.4-45.4-62.9c0-0.1,0-0.1-0.1-0.2
			c-3.1-10.9-0.8-22.6,6.8-34.7c4.1-6.5,4-14.5-0.1-20.9s-11.3-9.8-18.9-8.9c-28.9,3.6-46.1,16.8-56.1,29
			c-9.6-2.7-19.6-4.7-29.6-5.9c-5-0.6-9.5,3-10.1,7.9c-0.6,5,3,9.5,7.9,10.1c11.1,1.3,22,3.7,32.5,7c3.8,1.2,8-0.2,10.3-3.6
			c6.9-10.3,20.8-23.3,47.3-26.5c0.2,0,0.9-0.1,1.4,0.6c0.5,0.8,0.1,1.3,0,1.5c-10.3,16.4-13.3,33.5-8.8,49.3c0,0.1,0.1,0.2,0.1,0.4
			c0.1,2.6,1.3,5.1,3.4,6.8c21.2,17.1,36.6,38.9,44.4,62.9c1.2,3.7,4.7,6.2,8.6,6.2c0.1,0,0.1,0,0.2,0h12.7c4.7,0,8.5,3.8,8.5,8.5
			v43.3c0,4.7-3.8,8.5-8.5,8.5h-12.1c-4,0-7.5,2.6-8.7,6.4c-5.7,18.5-30.4,49.6-40,60.8l-2.2,1.9c-20.3,18.4-22.4,40.1-22.6,46.3
			c0,0.1,0,0.1,0,0.2v14.3c0,0.2-0.2,0.4-0.4,0.4h-57.9c-0.2,0-0.4-0.2-0.4-0.4v-13.7c0-2.6-1.1-5-3-6.7s-4.5-2.5-7-2.3
			c-14.6,1.5-29.4,1.3-43.7-0.6c-2.6-0.3-5.2,0.4-7.2,2.2c-2,1.7-3.1,4.2-3.1,6.8v14.3c0,0.2-0.2,0.4-0.4,0.4h-57.9
			c-0.2,0-0.4-0.2-0.4-0.4v-4.4c0-0.1,0-0.3,0-0.4c-0.5-10.4-3.8-36.8-24.3-57.9c-9.9-10.2-18.8-23.6-26.3-39.9
			c-0.1-0.1-0.1-0.2-0.2-0.3c-4.5-8.7-7.9-17.9-10.2-27.2c0-0.1,0-0.2-0.1-0.2l-0.1-0.3c0-0.1-0.1-0.2-0.1-0.3
			c-3.6-12.1-3.2-27.3-3.2-27.5c0-0.1,0-0.2,0-0.3c0-6.7,0.6-13.4,1.7-19.9c0.8-4.9-2.5-9.6-7.4-10.4s-9.6,2.5-10.4,7.4
			c-1.3,7.5-1.9,15.1-1.9,22.8c0,1.9-0.3,18.6,4,33l0.1,0.2c2.6,10.7,6.5,21.1,11.6,31c8.4,18.1,18.4,33.2,29.7,44.8
			c16.1,16.6,18.8,37.5,19.2,45.9v4.1c0,0.3,0,0.7,0,1c0,0.1,0,0.2,0,0.3c0.7,9.7,8.8,17.3,18.5,17.3h57.9
			c10.2,0,18.6-8.3,18.6-18.6v-4.2c9.2,0.8,18.5,0.9,27.8,0.4v3.8c0,10.2,8.3,18.6,18.6,18.6h57.9c10.2,0,18.6-8.3,18.6-18.6v-14.2
			c0.1-3.4,1.4-19.4,16.5-33.1l2.6-2.2c0.3-0.3,0.6-0.6,0.9-0.9c1.4-1.6,30.8-35.5,41.7-61.4h5.8
			C420.502,358.1,432.402,346.1,432.402,331.5z"/>
		<path style="fill:#6600ff;" d="M56.802,190.5c0,44.5,36.2,80.6,80.6,80.6s80.6-36.2,80.6-80.6s-36.2-80.6-80.6-80.6S56.802,146.1,56.802,190.5z
			 M199.902,190.5c0,34.5-28,62.5-62.5,62.5s-62.5-28-62.5-62.5s28-62.5,62.5-62.5S199.902,156.1,199.902,190.5z"/>
		<path style="fill:#6600ff;" d="M174.502,56c0,30.9,25.1,56,56,56s56-25.1,56-56s-25.1-56-56-56S174.502,25.1,174.502,56z M268.302,56
			c0,20.9-17,37.9-37.9,37.9s-37.9-17-37.9-37.9s17-37.9,37.9-37.9C251.302,18.1,268.302,35.1,268.302,56z"/>
	</g>
</g>
<g>
</g>
<g>
</g>
<g>
</g>
<g>
</g>
<g>
</g>
<g>
</g>
<g>
</g>
<g>
</g>
<g>
</g>
<g>
</g>
<g>
</g>
<g>
</g>
<g>
</g>
<g>
</g>
<g>
</g>
</svg>
